<svg xmlns="http://www.w3.org/2000/svg" width="616.927" height="491.807" viewBox="0 0 616.927 491.807">
  <g id="Group_118" data-name="Group 118" transform="translate(-187.073 -572)">
    <path id="Path_180" data-name="Path 180" d="M2148.03-135.92c62.217,3.886,175.128,22.058,243.442,99.486,98.154,111.247,43.8,181.328,19.176,222.958s-117.914,79.361-177.294,19.855-169.319,0-169.319,0-37.251,20.9-82.865,11.6-83.2-71.39-57.293-127.307c16.657-35.954,45.135-56.037,63.411-65.83,10.044-5.381,26.241-13.51,32.655-27.3,6.757-14.533,10.255-38.1-4.45-72.917-20.252-47.946,32.748-58.657,65.027-60.854A586.961,586.961,0,0,1,2148.03-135.92Z" transform="translate(-1728.328 709.048)" fill="rgba(90,86,188,0.57)" opacity="0.5"/>
    <g id="Group_117" data-name="Group 117" transform="translate(218.179 626.133)">
      <g id="OBJECTS" transform="translate(0)">
        <g id="Group_62" data-name="Group 62">
          <g id="Group_5" data-name="Group 5" transform="translate(483.985 176.776)">
            <g id="Group_1" data-name="Group 1" transform="translate(0)">
              <path id="Path_1" data-name="Path 1" d="M86.638,399.085c-3.855-10.5-11.05-18.865-16.358-28.538a75.038,75.038,0,0,1-8.956-29.987c-1.146-14.276,3.477-27.742,5.057-41.794,1.178-10.471,1.7-21.255-2.53-31.083-3.669-8.523-9.35-16.037-12.657-24.733-3.13-8.231-1.906-22.768,9.72-22.522,9.52.2,16.574,6.254,21.367,13.9A73.938,73.938,0,0,1,91.613,254.7c1.731,6.645,2.111,13.558,2.353,20.42.668,18.909.33,38.086-4.547,56.366-1.5,5.6-3.41,11.095-4.587,16.771a67.044,67.044,0,0,0,10.579,51.374" transform="translate(-49.715 -202.948)" fill="#019ca8"/>
              <path id="Path_2" data-name="Path 2" d="M83.033,303c2.492-1.635,5.855-4.015,9.425-6.838.5-.4.988-.789,1.469-1.18.011-.363.017-.725.026-1.088-.656.53-1.324,1.066-2.014,1.613-3.552,2.809-6.846,5.254-9.243,7.007-1.25.915-2.244,1.642-2.908,2.15a113.968,113.968,0,0,0,.685-12.908c-.009-2.362-.1-4.659-.25-6.9.573-.329,1.994-1.316,3.979-2.8,2.524-1.889,5.928-4.586,9.575-7.708l0-.109c-.012-.318-.026-.639-.038-.958l-.367.317c-3.687,3.162-7.075,5.965-9.532,7.993-1.8,1.49-3.092,2.563-3.624,3.069A112.156,112.156,0,0,0,77.22,265.6c-.074-.291-.151-.563-.226-.849.524-.507,1.78-1.925,3.557-3.968l8.971-10.3.645-.728c-.1-.3-.2-.608-.314-.909-.318.359-.637.718-.959,1.084-3.525,4.014-6.617,7.736-8.8,10.475-1.091,1.368-1.957,2.489-2.538,3.279-.271.368-.475.654-.616.867a106.778,106.778,0,0,0-5.26-15.382c.054-.013.084-.027.083-.04s-.027-.029-.072-.043c.295-.366,1.132-1.81,2.353-3.969l5.672-9.957c.551-.938,1.1-1.867,1.652-2.81-.169-.254-.343-.5-.518-.753q-.91,1.51-1.858,3.143c-2.246,3.884-4.155,7.469-5.469,10.1A42.632,42.632,0,0,0,71.61,249c-.032-.074-.067-.16-.1-.232-.854-1.917-1.547-3.392-2.066-4.367a9.492,9.492,0,0,0-.819-1.473,9.643,9.643,0,0,0,.615,1.569c.453,1,1.081,2.5,1.87,4.438l.022.053c-.718-.094-2.009-.244-3.7-.61-2.643-.55-6.256-1.66-10.342-2.517-1.718-.372-3.367-.687-4.912-.957.132.295.267.588.4.882,1.373.27,2.827.566,4.332.892,4.057.851,7.684,1.869,10.413,2.282a18.365,18.365,0,0,0,3.894.261A118.03,118.03,0,0,1,76.106,264.4c-1.694-.357-6.43-1.01-12.035-1.642q-1.266-.142-2.466-.27.225.439.446.878c.63.073,1.27.148,1.926.222,5.7.643,10.545,1.065,12.2,1.081.093.374.188.735.279,1.118a115.549,115.549,0,0,1,2.753,18.546c-.56-.372-1.4-.889-2.481-1.506-2.077-1.189-5.014-2.718-8.35-4.208-.611-.272-1.209-.53-1.8-.779.04.315.076.631.109.947.445.194.893.392,1.349.6,3.315,1.482,6.275,2.916,8.413,3.968,1.227.6,2.174,1.065,2.782,1.337.142,2.29.22,4.648.215,7.07a118.265,118.265,0,0,1-.82,13.563c-1.166-.738-4.987-2.69-9.378-5.256-1.093-.635-2.132-1.256-3.1-1.844-.035.29-.073.578-.109.867.873.555,1.807,1.127,2.789,1.7,2.691,1.566,5.212,2.835,7.07,3.673a27.405,27.405,0,0,0,2.7,1.1c-.591,5.334-1.408,10.853-2.22,16.523-1.682-.95-5.3-2.8-9.459-5.019-1.28-.682-2.5-1.339-3.629-1.951-.051.272-.1.543-.153.815,1.055.6,2.192,1.234,3.389,1.873,2.909,1.552,5.6,2.848,7.577,3.722.914.4,1.665.715,2.222.929-.059.419-.12.833-.179,1.253-.746,5.455-1.377,10.812-1.606,16.035-1.341-.87-5.031-2.908-9.359-5.333-1.486-.83-2.89-1.618-4.158-2.326-.014.29-.018.581-.028.871,1.156.691,2.429,1.431,3.778,2.185,2.768,1.547,5.32,2.863,7.194,3.76,1.141.546,2.023.938,2.555,1.139,0,.1-.014.211-.018.316a88.4,88.4,0,0,0,.651,15.124c-1.08-.69-4.563-2.44-8.749-4.377-1.362-.63-2.657-1.215-3.832-1.733.068.315.132.63.2.944,1.016.489,2.118,1.01,3.278,1.547,4.357,2.017,8.058,3.58,9.129,3.875.009.069.014.142.024.211a90,90,0,0,0,2.7,12.676,88.83,88.83,0,0,0-8.762-2.1l-.752-.151c.155.32.329.632.489.951l.1.021a82.412,82.412,0,0,0,8.992,1.5,85.69,85.69,0,0,0,4.641,12.384c.265.582.537,1.132.807,1.688-1.1-.373-3.381-.955-6.052-1.528q.321.494.639.987a52.29,52.29,0,0,0,5.6.927,84.715,84.715,0,0,0,8.1,13.19l1.659,2.146.439.028-.131-.171q-.754-1.055-1.616-2.258a92.428,92.428,0,0,1-7.842-13.411,34.515,34.515,0,0,0,1.733-3.671c-.117-.407-.24-.813-.349-1.221-.7,1.964-1.285,3.573-1.569,4.491-.234-.5-.47-1-.7-1.525a87.539,87.539,0,0,1-4.554-12.649,51.046,51.046,0,0,0,4.638-3.954c-.02-.357-.025-.713-.039-1.07-2.085,2.092-3.833,3.768-4.7,4.672A90.9,90.9,0,0,1,76.228,355.8c-.018-.139-.028-.284-.045-.423,1.27-1.064,4.4-4.08,7.985-7.728.179-.181.353-.359.529-.538.108-.511.222-1.02.341-1.528q-.717.72-1.465,1.48c-3.412,3.469-6.265,6.519-7.433,7.918a88.911,88.911,0,0,1-.542-14.593c.009-.213.028-.429.038-.643.616-.343,1.531-.9,2.684-1.629,2.12-1.349,5-3.292,8.1-5.546.991-.72,1.938-1.425,2.839-2.109.109-.409.205-.821.31-1.232l-3.64,2.664-7.943,5.734c-.981.711-1.772,1.294-2.326,1.721.256-5.034.869-10.209,1.592-15.5.072-.508.146-1.011.218-1.519,1.659-.854,6.221-3.6,11.534-6.972,1.256-.8,2.462-1.568,3.592-2.3.043-.336.078-.673.118-1.01-1.3.8-2.7,1.68-4.158,2.6-5.106,3.237-9.394,6.088-11.035,7.314.828-5.787,1.654-11.447,2.225-16.926C80.467,304.634,81.6,303.942,83.033,303Z" transform="translate(-49.52 -202.065)" fill="#0c8184"/>
              <path id="Path_3" data-name="Path 3" d="M110.514,399.085c3.854-10.5,11.049-18.865,16.356-28.538a75.021,75.021,0,0,0,8.956-29.987c1.146-14.276-3.476-27.742-5.056-41.794-1.177-10.471-1.7-21.255,2.531-31.083,3.669-8.523,9.349-16.037,12.657-24.733,3.13-8.231,1.9-22.768-9.72-22.522-9.52.2-16.574,6.254-21.367,13.9a73.943,73.943,0,0,0-9.334,20.373c-1.731,6.645-2.11,13.558-2.352,20.42-.669,18.909-.331,38.086,4.547,56.366,1.495,5.6,3.41,11.095,4.586,16.771a67.043,67.043,0,0,1-10.578,51.374" transform="translate(-45.602 -202.948)" fill="#12acaf"/>
              <path id="Path_4" data-name="Path 4" d="M113.832,303c-2.492-1.635-5.856-4.015-9.425-6.838-.5-.4-.988-.789-1.47-1.18-.01-.363-.016-.725-.025-1.088.655.53,1.323,1.066,2.014,1.613,3.552,2.809,6.846,5.254,9.243,7.007,1.25.915,2.244,1.642,2.908,2.15a113.724,113.724,0,0,1-.685-12.908c.008-2.362.1-4.659.249-6.9-.572-.329-1.993-1.316-3.979-2.8-2.523-1.889-5.928-4.586-9.573-7.708l0-.109c.011-.318.025-.639.037-.958l.368.317c3.687,3.162,7.075,5.965,9.531,7.993,1.8,1.49,3.092,2.563,3.624,3.069a112.15,112.15,0,0,1,2.992-19.058c.073-.291.15-.563.224-.849-.523-.507-1.779-1.925-3.555-3.968l-8.972-10.3-.644-.728c.1-.3.2-.608.314-.909.318.359.636.718.958,1.084,3.525,4.014,6.618,7.736,8.8,10.475,1.091,1.368,1.957,2.489,2.538,3.279.271.368.474.654.616.867a106.509,106.509,0,0,1,5.26-15.382c-.055-.013-.084-.027-.084-.04s.028-.029.073-.043c-.3-.366-1.132-1.81-2.355-3.969-2.166-3.8-3.889-6.828-5.672-9.957-.55-.938-1.1-1.867-1.652-2.81.17-.254.343-.5.519-.753q.908,1.51,1.857,3.143c2.247,3.884,4.155,7.469,5.47,10.1A42.786,42.786,0,0,1,125.254,249c.032-.074.068-.16.1-.232.855-1.917,1.547-3.392,2.068-4.367a9.45,9.45,0,0,1,.818-1.473,9.507,9.507,0,0,1-.615,1.569c-.452,1-1.08,2.5-1.87,4.438l-.021.053c.718-.094,2.008-.244,3.7-.61,2.644-.55,6.256-1.66,10.343-2.517,1.717-.372,3.367-.687,4.911-.957q-.2.442-.4.882c-1.373.27-2.828.566-4.332.892-4.058.851-7.685,1.869-10.413,2.282a18.365,18.365,0,0,1-3.894.261,118.031,118.031,0,0,0-4.883,15.172c1.694-.357,6.43-1.01,12.034-1.642q1.266-.142,2.466-.27-.225.439-.446.878c-.629.073-1.269.148-1.926.222-5.7.643-10.545,1.065-12.2,1.081-.093.374-.188.735-.279,1.118a115.429,115.429,0,0,0-2.753,18.546c.56-.372,1.4-.889,2.481-1.506,2.076-1.189,5.013-2.718,8.35-4.208.61-.272,1.207-.53,1.8-.779-.041.315-.076.631-.11.947-.443.194-.892.392-1.348.6-3.316,1.482-6.275,2.916-8.413,3.968-1.227.6-2.175,1.065-2.782,1.337-.142,2.29-.22,4.648-.215,7.07a117.78,117.78,0,0,0,.82,13.563c1.165-.738,4.987-2.69,9.377-5.256,1.094-.635,2.133-1.256,3.1-1.844.033.29.073.578.109.867-.873.555-1.809,1.127-2.79,1.7-2.691,1.566-5.211,2.835-7.07,3.673a27.188,27.188,0,0,1-2.7,1.1c.591,5.334,1.408,10.853,2.22,16.523,1.683-.95,5.3-2.8,9.459-5.019,1.281-.682,2.5-1.339,3.63-1.951.051.272.1.543.153.815-1.056.6-2.192,1.234-3.389,1.873-2.91,1.552-5.6,2.848-7.577,3.722-.914.4-1.665.715-2.223.929.06.419.12.833.18,1.253.746,5.455,1.377,10.812,1.606,16.035,1.341-.87,5.03-2.908,9.358-5.333,1.486-.83,2.891-1.618,4.159-2.326.013.29.017.581.027.871-1.155.691-2.428,1.431-3.778,2.185-2.767,1.547-5.319,2.863-7.193,3.76-1.141.546-2.023.938-2.556,1.139,0,.1.015.211.018.316a88.507,88.507,0,0,1-.65,15.124c1.08-.69,4.562-2.44,8.748-4.377,1.362-.63,2.658-1.215,3.832-1.733-.067.315-.131.63-.2.944-1.017.489-2.118,1.01-3.278,1.547-4.357,2.017-8.058,3.58-9.129,3.875-.01.069-.015.142-.025.211a89.7,89.7,0,0,1-2.7,12.676,88.827,88.827,0,0,1,8.762-2.1l.753-.151c-.155.32-.329.632-.49.951l-.1.021a82.373,82.373,0,0,1-8.993,1.5,85.563,85.563,0,0,1-4.64,12.384c-.267.582-.537,1.132-.807,1.688,1.1-.373,3.381-.955,6.052-1.528q-.32.494-.639.987a52.3,52.3,0,0,1-5.6.927,84.717,84.717,0,0,1-8.1,13.19l-1.657,2.146-.44.028.131-.171,1.616-2.258a92.224,92.224,0,0,0,7.842-13.411,34.568,34.568,0,0,1-1.732-3.671c.117-.407.238-.813.347-1.221.7,1.964,1.286,3.573,1.569,4.491.235-.5.472-1,.7-1.525a87.543,87.543,0,0,0,4.553-12.649,51.226,51.226,0,0,1-4.637-3.954c.019-.357.025-.713.039-1.07,2.084,2.092,3.832,3.768,4.694,4.672a90.893,90.893,0,0,0,2.452-12.092c.017-.139.028-.284.045-.423-1.271-1.064-4.4-4.08-7.986-7.728l-.528-.538c-.108-.511-.222-1.02-.341-1.528q.717.72,1.465,1.48c3.411,3.469,6.264,6.519,7.432,7.918a88.915,88.915,0,0,0,.543-14.593c-.009-.213-.029-.429-.039-.643-.616-.343-1.531-.9-2.683-1.629-2.12-1.349-5-3.292-8.1-5.546-.99-.72-1.937-1.425-2.839-2.109-.108-.409-.2-.821-.309-1.232l3.64,2.664,7.942,5.734c.982.711,1.773,1.294,2.326,1.721-.255-5.034-.869-10.209-1.592-15.5-.072-.508-.145-1.011-.217-1.519-1.658-.854-6.222-3.6-11.534-6.972-1.256-.8-2.462-1.568-3.593-2.3-.042-.336-.077-.673-.117-1.01,1.3.8,2.7,1.68,4.157,2.6,5.106,3.237,9.394,6.088,11.036,7.314-.828-5.787-1.654-11.447-2.226-16.926C116.4,304.634,115.269,303.942,113.832,303Z" transform="translate(-45.509 -202.065)" fill="#0c8184"/>
              <path id="Path_5" data-name="Path 5" d="M102.407,404.262c-3.22-2.224-5.1-5.883-6.666-9.471-6.468-14.848-10.581-32.269-8.513-48.453,2.172-17,5.9-34.214,4.9-51.431a118.4,118.4,0,0,0-5.68-28.655c-5.2-16.459-14.911-46.045,1.683-59.57,8.393-6.84,17.789,2.117,22.969,8.663,8.725,11.027,11.538,26.442,13.561,39.992,4.222,28.292-5.462,55.576-13.556,82.266a225.81,225.81,0,0,0-8.915,42.2,48.834,48.834,0,0,0-.086,12.312c.968,6.319,4.6,9.8,8.257,14.591" transform="translate(-47.411 -204.229)" fill="#0a9093"/>
              <path id="Path_6" data-name="Path 6" d="M102.584,401.734c-.275-.634-.568-1.3-.882-2.023-.357-.8-.661-1.758-1.068-2.814a81.892,81.892,0,0,1-4.106-16.616c.647-.342,1.915-1.119,3.621-2.249.666-.439,1.4-.937,2.179-1.476.04-.353.083-.706.125-1.058-.978.733-1.883,1.408-2.679,2-1.548,1.157-2.693,2.023-3.283,2.519-.081-.571-.166-1.131-.238-1.721a116.6,116.6,0,0,1-.7-16.968c1.715-.915,5.668-3.3,10.465-6.328q.142-.631.289-1.263c-4.932,3.174-8.983,5.89-10.739,7.187q.149-5.285.683-11c.3-3.211.7-6.52,1.172-9.894a56.989,56.989,0,0,1,4.772-3.525c2.885-1.907,6.717-4.464,10.956-7.352l.434-1.409c-4.609,3.166-8.74,6.044-11.764,8.228a35.338,35.338,0,0,0-3.709,3.045c-.263.256-.465.467-.638.656.3-2.114.61-4.248.954-6.417.706-4.463,1.51-9.044,2.275-13.73.927-.439,2.412-1.2,4.332-2.213,3.273-1.729,7.763-4.173,12.7-6.922l1.2-.67c.114-.414.23-.828.342-1.242l-1.99,1.106c-4.936,2.752-9.377,5.287-12.57,7.162-1.725,1.014-3.069,1.826-3.945,2.384.2-1.238.4-2.478.595-3.729.94-6.134,1.72-12.163,2.029-18.026.068-1.137.11-2.26.151-3.381.257-.147.549-.317.917-.54,1.093-.654,2.642-1.65,4.529-2.924,3.773-2.543,8.858-6.26,14.2-10.71q1-.833,1.957-1.657.06-.656.114-1.31c-.868.746-1.75,1.5-2.662,2.26-5.317,4.431-10.316,8.212-13.983,10.884l-4.352,3.158c-.27.2-.5.368-.7.521.156-4.547.108-8.968-.1-13.208-.207-4.368-.614-8.534-1.115-12.488.245-.19.634-.524,1.188-1.025l3.784-3.5c3.179-2.974,7.566-7.083,12.463-11.567q2.049-1.874,3.977-3.619c-.057-.346-.119-.695-.178-1.042q-2.14,1.9-4.422,3.982c-4.905,4.49-9.229,8.682-12.295,11.779-1.533,1.548-2.757,2.819-3.583,3.715q-.655.711-.961,1.082c-.109-.85-.217-1.7-.333-2.533-.655-4.744-1.474-9.131-2.332-13.11-.574-2.671-1.163-5.14-1.745-7.429.2-.167.424-.359.69-.591.94-.817,2.272-2.029,3.9-3.547,3.253-3.036,7.666-7.319,12.411-12.176q1.471-1.507,2.858-2.958c-.128-.309-.264-.613-.4-.918-1.027,1.063-2.064,2.137-3.121,3.232-4.182,4.232-8.055,8.152-12.206,12.352l-3.691,3.755c-.2.205-.366.384-.519.548-1.125-4.4-2.22-8.07-3.114-10.886-.675-2.172-1.265-3.836-1.668-4.963a10.019,10.019,0,0,0-.677-1.7,10.341,10.341,0,0,0,.44,1.774c.423,1.47.9,3.122,1.446,5.024.793,2.807,1.786,6.457,2.817,10.8-.693-.355-2.219-1.019-4.356-1.886-3-1.216-7.175-2.815-11.825-4.478-.462-.165-.917-.326-1.37-.487.047.343.1.685.152,1.027l.909.328,11.906,4.22c2.3.8,3.944,1.339,4.64,1.508.032.135.064.262.095.4-.1.124-.165.216-.15.232s.083-.028.181-.1c.515,2.2,1.035,4.553,1.544,7.091.8,3.972,1.566,8.347,2.173,13.071.082.628.156,1.278.235,1.918-.55-.329-1.835-.963-3.647-1.8-2.488-1.154-5.953-2.688-9.8-4.331-.967-.413-1.912-.812-2.826-1.2q.18.576.355,1.137c.688.3,1.389.6,2.108.907,3.845,1.641,7.346,3.08,9.9,4.08,1.979.774,3.379,1.281,3.938,1.417.5,4.11.9,8.449,1.091,13.007.183,4.2.212,8.585.042,13.089-.537-.417-1.315-.988-2.28-1.687l-7.685-5.577-1.111-.832c.06.426.113.854.168,1.28.133.1.261.2.4.295,3,2.208,5.8,4.085,7.867,5.376,1.125.7,2.021,1.225,2.625,1.547-.043,1.09-.087,2.181-.156,3.286-.322,5.811-1.1,11.8-2.042,17.911-.186,1.137-.369,2.264-.552,3.39-1.147-1.564-3.663-4.647-6.671-8.143-.368-.427-.727-.843-1.083-1.252-.032.427-.071.853-.108,1.28.164.19.326.38.492.573,3.178,3.694,6,6.79,7.289,8.039-.775,4.759-1.534,9.424-2.274,13.966-.344,2.2-.655,4.372-.946,6.521-1.078-1.212-3.8-3.919-6.758-7.276-.17-.191-.336-.38-.5-.569l-.178,1.193a52.511,52.511,0,0,0,7.384,7.043c-.45,3.354-.836,6.644-1.115,9.841-.356,3.986-.561,7.838-.624,11.522-.345-.369-.788-.857-1.285-1.487-1.159-1.478-2.817-3.549-4.812-5.661-.589-.63-1.172-1.227-1.738-1.793-.006.425-.019.85-.018,1.276.356.373.716.754,1.083,1.148,1.983,2.1,3.684,4.061,5,5.462a11.033,11.033,0,0,0,1.77,1.547,112.574,112.574,0,0,0,.9,16.568c.07.514.152,1,.229,1.5-.861-1.02-3.338-3.537-6.588-6.7q.178.766.368,1.529c3.112,2.879,5.484,4.972,6.274,5.524a76.786,76.786,0,0,0,4.514,16.811c.444,1.049.784,2,1.181,2.787l.993,1.984c.208.411.371.72.507.976l.189.057C102.946,402.592,102.793,402.222,102.584,401.734Z" transform="translate(-47.359 -202.624)" fill="#0e6b6b"/>
            </g>
            <g id="Group_4" data-name="Group 4" transform="translate(8.444 185.337)">
              <path id="Path_7" data-name="Path 7" d="M62,383.331c-.578,5.62-4.117,47.9,18.037,66.065a7.053,7.053,0,0,0,4.479,1.57h33.579a7.053,7.053,0,0,0,4.479-1.57c22.153-18.167,18.615-60.445,18.037-66.065Z" transform="translate(-57.232 -375.405)" fill="#edce4f"/>
              <g id="Group_3" data-name="Group 3" transform="translate(4.353 7.926)" opacity="0.32" style="mix-blend-mode: multiply;isolation: isolate">
                <g id="Group_2" data-name="Group 2">
                  <path id="Path_8" data-name="Path 8" d="M133.6,411.3c-10.121-7.687-27.931-.5-37.255,5.39-9.766,6.171-15.823,16.037-23.074,24.742a37.672,37.672,0,0,0,5.823,6.011c.012.01.025.016.037.025,1.742-1.957,3.42-4.013,5.047-6.126,5.3-6.878,10.492-13.522,17.926-18.221a43.935,43.935,0,0,1,13.346-5.33c3.929-.944,11.2-2.464,14.043,1.341,2.827,3.777,2.681,9.4,2.729,14.7a69.377,69.377,0,0,0,5.726-16.95A14.615,14.615,0,0,0,133.6,411.3Z" transform="translate(-60.649 -381.384)" fill="#ffac00"/>
                  <path id="Path_9" data-name="Path 9" d="M131.784,390.561c-8.175,2.521-16.5,4.546-24.781,6.686-14.716,3.8-29.281,8.128-42.811,15.177-.4.208-.8.428-1.2.644,4.377-4.784,8.273-10.1,12.08-14.453a143.186,143.186,0,0,1,15.257-15.284h-12.6c-5.535,5.5-10.657,11.455-15.609,17.392l-.554.665a106.362,106.362,0,0,0,2.862,20.618c3.444-1.978,6.931-3.735,10.262-5.283,14.574-6.771,30.571-10.189,46.043-14.229,5.929-1.548,13.549-3.007,20.4-5.66.043-3.708-.072-6.906-.215-9.319A91.208,91.208,0,0,1,131.784,390.561Z" transform="translate(-61.574 -383.331)" fill="#ffac00"/>
                </g>
                <path id="Path_10" data-name="Path 10" d="M113.751,426.889c-8.349-.216-15.449,4.45-21.16,10.166a40.975,40.975,0,0,0-7.225,10.468h9.786c.29-.465.573-.935.883-1.39,3.786-5.565,12.784-13.258,19.949-9.993,3.189,1.453,5.176,4.641,6.634,8.1a40,40,0,0,0,5.842-7.031C125.4,431.877,120.1,427.051,113.751,426.889Z" transform="translate(-59.693 -379.888)" fill="#ffac00"/>
              </g>
              <path id="Path_11" data-name="Path 11" d="M119.493,423.849c-6.685-1.245-13.587-1.675-19.961-4.043a34.753,34.753,0,0,1-17.287-14.151c-3.683-5.946-5.472-12.87-6.58-19.775q-.2-1.269-.374-2.549H62c-.578,5.62-4.117,47.9,18.037,66.065a7.053,7.053,0,0,0,4.479,1.57h33.579a7.053,7.053,0,0,0,4.479-1.57c6.323-5.185,10.548-12.337,13.351-20.038A56.786,56.786,0,0,0,119.493,423.849Z" transform="translate(-57.232 -375.405)" fill="#ffac00" opacity="0.17" style="mix-blend-mode: multiply;isolation: isolate"/>
              <rect id="Rectangle_3" data-name="Rectangle 3" width="88.141" height="15.964" rx="4.593" fill="#f9db5d"/>
            </g>
          </g>
          <g id="Group_61" data-name="Group 61">
            <g id="Group_56" data-name="Group 56" transform="translate(24.38)">
              <path id="Path_14" data-name="Path 14" d="M412.453,117.61h-51.02a49.954,49.954,0,0,0-49.874,52.784l6.987,123.156h136.8l6.987-123.156A49.953,49.953,0,0,0,412.453,117.61Z" transform="translate(-158.583 -34.301)" fill="#3d348b"/>
              <path id="Path_15" data-name="Path 15" d="M348.821,94.471a86.073,86.073,0,0,1-2.316-29.7,11.9,11.9,0,0,1,1.8-5.956c1.248-1.689,3.684-2.681,5.523-1.665.575-4.382,3.435-8.24,7.051-10.781a32.01,32.01,0,0,1,12.27-4.762,63.59,63.59,0,0,1,36.287,3.5,22.2,22.2,0,0,1,6.94,4.087c9.48,8.924,9.653,27.156,6.542,38.822-.588,2.208-1.4,4.449-1.1,6.715" transform="translate(-155.846 -40.405)" fill="#4a3d99"/>
              <path id="Path_16" data-name="Path 16" d="M332.594,169.438l-12.577,47.154a8.208,8.208,0,0,0,8,10.323l25.568-.209" transform="translate(-157.93 -30.203)" fill="#7778ed"/>
              <path id="Path_17" data-name="Path 17" d="M444.581,169.438l12.578,47.154a8.209,8.209,0,0,1-8,10.323l-25.57-.209" transform="translate(-149.719 -30.203)" fill="#7778ed"/>
              <path id="Path_18" data-name="Path 18" d="M401.655,128.59H367.441a20.653,20.653,0,0,0,34.214,0Z" transform="translate(-154.158 -33.433)" fill="#4a9cce"/>
              <path id="Rectangle_6" data-name="Rectangle 6" d="M21.382,0h47.7A21.382,21.382,0,0,1,90.469,21.382V42.359a0,0,0,0,1,0,0H0a0,0,0,0,1,0,0V21.382A21.382,21.382,0,0,1,21.382,0Z" transform="translate(185.556 95.157)" fill="#7778ed"/>
              <path id="Path_19" data-name="Path 19" d="M393.684,129.754v-15.89H375.448v15.89h-3.161a16.763,16.763,0,0,0,24.557,0Z" transform="translate(-153.775 -34.597)" fill="#fca596"/>
              <path id="Path_20" data-name="Path 20" d="M388.574,46.524h-4.98c-18.622,0-32.9,17.157-30.18,36.268l2.922,20.546c1.547,10.879,10.547,18.94,21.148,18.94h17.2c10.6,0,19.6-8.061,21.149-18.94l2.921-20.546C421.472,63.681,407.2,46.524,388.574,46.524Z" transform="translate(-155.294 -39.921)" fill="#fca596"/>
              <ellipse id="Ellipse_1" data-name="Ellipse 1" cx="8.834" cy="11.64" rx="8.834" ry="11.64" transform="matrix(0.497, -0.868, 0.868, 0.497, 182.613, 60.744)" fill="#fca596"/>
              <ellipse id="Ellipse_2" data-name="Ellipse 2" cx="11.64" cy="8.833" rx="11.64" ry="8.833" transform="translate(249.399 56.978) rotate(-29.79)" fill="#fca596"/>
              <g id="Group_8" data-name="Group 8" transform="translate(319.278 155.094)">
                <g id="Group_7" data-name="Group 7" transform="translate(16.547 8.172)">
                  <path id="Path_21" data-name="Path 21" d="M503.055,216.773H489.318A8.323,8.323,0,0,1,481,208.458v-8.435a8.324,8.324,0,0,1,8.314-8.315h13.736a8.324,8.324,0,0,1,8.313,8.315v8.435A8.323,8.323,0,0,1,503.055,216.773Zm-13.736-20.828a4.084,4.084,0,0,0-4.079,4.079v8.435a4.084,4.084,0,0,0,4.079,4.079h13.736a4.084,4.084,0,0,0,4.078-4.079v-8.435a4.084,4.084,0,0,0-4.078-4.079Z" transform="translate(-481.004 -191.708)" fill="#7778ed"/>
                </g>
                <path id="Path_22" data-name="Path 22" d="M485.571,184.135h-19.9l3.769,41.409h27.72l3.769-41.409Z" transform="translate(-465.669 -184.135)" fill="#7778ed"/>
              </g>
              <g id="Group_9" data-name="Group 9" transform="translate(172.097 110.61)">
                <path id="Path_23" data-name="Path 23" d="M408.16,142.911H338.226a8.953,8.953,0,0,0-8.94,9.43l3.8,68.283a8.953,8.953,0,0,0,8.94,8.476h99.025a8.952,8.952,0,0,0,8.94-8.476l3.8-68.283a8.953,8.953,0,0,0-8.94-9.43Z" transform="translate(-329.273 -142.911)" fill="#f8b901"/>
                <circle id="Ellipse_3" data-name="Ellipse 3" cx="10.972" cy="10.972" r="10.972" transform="translate(46.751 38.451) rotate(-45)" fill="#fff"/>
                <path id="Path_24" data-name="Path 24" d="M392.256,178.9a4.918,4.918,0,1,1-4.917-4.917A4.918,4.918,0,0,1,392.256,178.9Z" transform="translate(-325.071 -140.454)" fill="#c5dcfc"/>
                <path id="Path_25" data-name="Path 25" d="M424.905,195.735c-14.376-3.8-29.187-5.8-43.511-9.787-8.423-2.343-16.768-5.422-23.893-10.487a49.8,49.8,0,0,1-19.688-30.118c-.165-.793-.307-1.592-.431-2.391a8.95,8.95,0,0,0-8.1,9.386l3.8,68.283a8.953,8.953,0,0,0,8.94,8.476h99.025a8.952,8.952,0,0,0,8.94-8.476l.827-14.832A109.823,109.823,0,0,0,424.905,195.735Z" transform="translate(-329.273 -142.908)" fill="#f8b901" opacity="0.2" style="mix-blend-mode: multiply;isolation: isolate"/>
                <rect id="Rectangle_7" data-name="Rectangle 7" width="118.927" height="7.347" rx="1.786" transform="translate(2.804 78.842)" fill="#dda400"/>
              </g>
              <g id="Group_31" data-name="Group 31" transform="translate(0 140.209)">
                <g id="Group_16" data-name="Group 16" transform="translate(8.214 34.435)">
                  <path id="Rectangle_8" data-name="Rectangle 8" d="M0,0H74.283a5.25,5.25,0,0,1,5.25,5.25v8.7a5.25,5.25,0,0,1-5.25,5.25H0a0,0,0,0,1,0,0V0A0,0,0,0,1,0,0Z" transform="translate(1.829 1.372)" fill="#cdebed"/>
                  <g id="Group_10" data-name="Group 10" transform="translate(1.829 1.371)" style="mix-blend-mode: multiply;isolation: isolate">
                    <path id="Path_26" data-name="Path 26" d="M257.5,215.79a9.567,9.567,0,0,1-.32,2.339,9.556,9.556,0,0,0-8.156-14.605H179.093v2.666H247.9A9.6,9.6,0,0,1,257.5,215.79Z" transform="translate(-179.093 -203.524)" fill="#cdebed"/>
                  </g>
                  <g id="Group_11" data-name="Group 11">
                    <path id="Path_27" data-name="Path 27" d="M249.161,202.253H177.4V205h71.763a8.227,8.227,0,1,1,0,16.455H177.4v2.743h71.763a10.97,10.97,0,0,0,0-21.941Z" transform="translate(-177.398 -202.253)" fill="#0d334a"/>
                  </g>
                  <g id="Group_15" data-name="Group 15" transform="translate(5.85 6.545)">
                    <g id="Group_12" data-name="Group 12">
                      <path id="Path_28" data-name="Path 28" d="M246.939,209.232H183.275a.457.457,0,0,1,0-.914h63.664a.457.457,0,1,1,0,.914Z" transform="translate(-182.819 -208.318)" fill="#fff"/>
                    </g>
                    <g id="Group_13" data-name="Group 13" transform="translate(0 3.969)">
                      <path id="Path_29" data-name="Path 29" d="M246.939,212.91H183.275a.457.457,0,0,1,0-.914h63.664a.457.457,0,1,1,0,.914Z" transform="translate(-182.819 -211.996)" fill="#fff"/>
                    </g>
                    <g id="Group_14" data-name="Group 14" transform="translate(0 7.938)">
                      <path id="Path_30" data-name="Path 30" d="M246.939,216.589H183.275a.458.458,0,0,1,0-.915h63.664a.458.458,0,0,1,0,.915Z" transform="translate(-182.819 -215.674)" fill="#fff"/>
                    </g>
                  </g>
                </g>
                <g id="Group_23" data-name="Group 23" transform="translate(15.744)">
                  <path id="Rectangle_9" data-name="Rectangle 9" d="M0,0H57.12a4.554,4.554,0,0,1,4.554,4.554V12.1a4.554,4.554,0,0,1-4.554,4.554H0a0,0,0,0,1,0,0V0A0,0,0,0,1,0,0Z" transform="translate(1.587 1.19)" fill="#cdebed"/>
                  <g id="Group_17" data-name="Group 17" transform="translate(1.586 1.19)" style="mix-blend-mode: multiply;isolation: isolate">
                    <path id="Path_31" data-name="Path 31" d="M246.547,182.082a8.3,8.3,0,0,1-.278,2.03,8.288,8.288,0,0,0-7.074-12.668H185.846v2.312h52.375A8.326,8.326,0,0,1,246.547,182.082Z" transform="translate(-185.846 -171.444)" fill="#cdebed"/>
                  </g>
                  <g id="Group_18" data-name="Group 18">
                    <path id="Path_32" data-name="Path 32" d="M239.31,170.341H184.376v2.379H239.31a7.136,7.136,0,1,1,0,14.273H184.376v2.379H239.31a9.516,9.516,0,1,0,0-19.031Z" transform="translate(-184.376 -170.341)" fill="#59afec"/>
                  </g>
                  <g id="Group_22" data-name="Group 22" transform="translate(5.074 5.676)">
                    <g id="Group_19" data-name="Group 19">
                      <path id="Path_33" data-name="Path 33" d="M237.383,176.394H189.475a.4.4,0,1,1,0-.793h47.908a.4.4,0,1,1,0,.793Z" transform="translate(-189.078 -175.601)" fill="#fff"/>
                    </g>
                    <g id="Group_20" data-name="Group 20" transform="translate(0 3.443)">
                      <path id="Path_34" data-name="Path 34" d="M237.383,179.585H189.475a.4.4,0,1,1,0-.793h47.908a.4.4,0,1,1,0,.793Z" transform="translate(-189.078 -178.792)" fill="#fff"/>
                    </g>
                    <g id="Group_21" data-name="Group 21" transform="translate(0 6.887)">
                      <path id="Path_35" data-name="Path 35" d="M237.383,182.775H189.475a.4.4,0,1,1,0-.792h47.908a.4.4,0,1,1,0,.792Z" transform="translate(-189.078 -181.983)" fill="#fff"/>
                    </g>
                  </g>
                </g>
                <g id="Group_30" data-name="Group 30" transform="translate(0 19.04)">
                  <path id="Rectangle_10" data-name="Rectangle 10" d="M0,0H66.037A3.763,3.763,0,0,1,69.8,3.763V10a3.763,3.763,0,0,1-3.763,3.763H0a0,0,0,0,1,0,0V0A0,0,0,0,1,0,0Z" transform="translate(1.31 0.983)" fill="#cdebed"/>
                  <g id="Group_24" data-name="Group 24" transform="translate(1.31 0.983)" style="mix-blend-mode: multiply;isolation: isolate">
                    <path id="Path_36" data-name="Path 36" d="M240,197.687a6.825,6.825,0,0,1-.23,1.677A6.847,6.847,0,0,0,233.92,188.9H171v1.91h62.116A6.88,6.88,0,0,1,240,197.687Z" transform="translate(-171 -188.897)" fill="#cdebed"/>
                  </g>
                  <g id="Group_25" data-name="Group 25">
                    <path id="Path_37" data-name="Path 37" d="M234.016,187.986h-64.23v1.965h64.23a5.9,5.9,0,1,1,0,11.793h-64.23v1.966h64.23a7.862,7.862,0,0,0,0-15.724Z" transform="translate(-169.786 -187.986)" fill="#f0c40c"/>
                  </g>
                  <g id="Group_29" data-name="Group 29" transform="translate(4.192 4.69)">
                    <g id="Group_26" data-name="Group 26">
                      <path id="Path_38" data-name="Path 38" d="M232.425,192.987H174a.327.327,0,1,1,0-.655h58.426a.327.327,0,0,1,0,.655Z" transform="translate(-173.671 -192.332)" fill="#fff"/>
                    </g>
                    <g id="Group_27" data-name="Group 27" transform="translate(0 2.844)">
                      <path id="Path_39" data-name="Path 39" d="M232.425,195.623H174a.328.328,0,1,1,0-.655h58.426a.328.328,0,0,1,0,.655Z" transform="translate(-173.671 -194.968)" fill="#fff"/>
                    </g>
                    <g id="Group_28" data-name="Group 28" transform="translate(0 5.69)">
                      <path id="Path_40" data-name="Path 40" d="M232.425,198.26H174a.327.327,0,1,1,0-.655h58.426a.327.327,0,0,1,0,.655Z" transform="translate(-173.671 -197.605)" fill="#fff"/>
                    </g>
                  </g>
                </g>
              </g>
              <g id="Group_37" data-name="Group 37" transform="translate(83.97 14.808)">
                <g id="Group_36" data-name="Group 36">
                  <g id="Group_32" data-name="Group 32" transform="translate(30.703)">
                    <path id="Path_41" data-name="Path 41" d="M338.6,142.809a1.01,1.01,0,0,1-1.01-1.01V63.559a7.418,7.418,0,0,0-7.41-7.41H277.066a1.011,1.011,0,0,1,0-2.021H330.18a9.44,9.44,0,0,1,9.43,9.431V141.8A1.01,1.01,0,0,1,338.6,142.809Z" transform="translate(-276.056 -54.128)" fill="#fff"/>
                  </g>
                  <g id="Group_33" data-name="Group 33" transform="translate(0 68.184)">
                    <path id="Path_42" data-name="Path 42" d="M331.268,187.925h-4.933a9.745,9.745,0,0,1-9.733-9.734V127.049a7.723,7.723,0,0,0-7.713-7.713H248.614a1.01,1.01,0,1,1,0-2.02h60.274a9.744,9.744,0,0,1,9.733,9.733V178.19a7.722,7.722,0,0,0,7.713,7.713h4.933a1.011,1.011,0,0,1,0,2.021Z" transform="translate(-247.603 -117.316)" fill="#fff"/>
                  </g>
                  <g id="Group_34" data-name="Group 34" transform="translate(201.27 51.68)">
                    <path id="Path_43" data-name="Path 43" d="M435.136,141.843a1.01,1.01,0,0,1-1.01-1.01V128.038a7.694,7.694,0,0,1,7.685-7.685h69.438a5.671,5.671,0,0,0,5.665-5.664V103.031a1.01,1.01,0,1,1,2.02,0v11.658a7.694,7.694,0,0,1-7.685,7.685H441.811a5.671,5.671,0,0,0-5.665,5.664v12.794A1.009,1.009,0,0,1,435.136,141.843Z" transform="translate(-434.126 -102.021)" fill="#fff"/>
                  </g>
                  <g id="Group_35" data-name="Group 35" transform="translate(218.425 122.862)">
                    <path id="Path_44" data-name="Path 44" d="M535.085,170.009H451.034a1.011,1.011,0,0,1,0-2.021h84.051a1.011,1.011,0,0,1,0,2.021Z" transform="translate(-450.024 -167.988)" fill="#fff"/>
                  </g>
                </g>
              </g>
              <path id="Path_51" data-name="Path 51" d="M352.373,91.129c2.511-.073,4.7-1.716,6.457-3.508a29.772,29.772,0,0,0,8.393-21.714c3.954,2.314,8.748,2.588,13.33,2.563,6.072-.032,12.286-.521,17.832-3s10.36-7.257,11.479-13.224A245.059,245.059,0,0,0,384.8,48.765c-5.065-.481-10.2-.876-15.223-.073-4.711.752-9.435,2.7-12.446,6.4s-3.945,8.661-4.2,13.421.066,9.583-.864,14.26" transform="translate(-155.374 -39.786)" fill="#fa92ae" opacity="0.22" style="mix-blend-mode: multiply;isolation: isolate"/>
              <path id="Path_52" data-name="Path 52" d="M386.416,42.246c-8.271-.3-20.97,2.127-26.9,8.487a41.175,41.175,0,0,0-9.561,18.655c-1.625,6.9-2.158,15.437,1.1,21.949a1.88,1.88,0,0,0,.708.878c.71.379,1.533-.2,2.125-.749a29.512,29.512,0,0,0,7.9-12.422,41.323,41.323,0,0,0,1.795-8.885c.1-.878,1.039-9.2.478-9.376a67.717,67.717,0,0,0,26.81,2.856,33.005,33.005,0,0,0,11.271-2.782,16.414,16.414,0,0,0,8.133-8.019C404.266,46.221,395.346,42.568,386.416,42.246Z" transform="translate(-155.643 -40.261)" fill="#4a3d99"/>
              <g id="Group_55" data-name="Group 55" transform="translate(102.301 128.725)">
                <g id="Group_52" data-name="Group 52" transform="translate(15.999)">
                  <rect id="Rectangle_15" data-name="Rectangle 15" width="5.412" height="46.554" fill="#9bced3"/>
                  <rect id="Rectangle_16" data-name="Rectangle 16" width="5.412" height="45.121" transform="translate(0 5.068)" fill="#9b88fe"/>
                  <rect id="Rectangle_17" data-name="Rectangle 17" width="5.412" height="1.791" transform="translate(0 4.172)" fill="#cdebed"/>
                </g>
                <g id="Group_53" data-name="Group 53" transform="translate(22.493 10.996)">
                  <rect id="Rectangle_18" data-name="Rectangle 18" width="25.126" height="9.594" transform="matrix(0.059, -0.998, 0.998, 0.059, 0, 27.322)" fill="#f0c40c"/>
                  <path id="Rectangle_19" data-name="Rectangle 19" d="M1.362,0H8.793a1.362,1.362,0,0,1,1.362,1.362V5.4a0,0,0,0,1,0,0H0a0,0,0,0,1,0,0V1.362A1.362,1.362,0,0,1,1.362,0Z" transform="matrix(0.998, 0.059, -0.059, 0.998, 1.336, 0)" fill="#0d334a"/>
                  <rect id="Rectangle_20" data-name="Rectangle 20" width="3.158" height="9.752" rx="1.265" transform="translate(6.232 3.212) rotate(3.383)" fill="#0d334a"/>
                </g>
                <g id="Group_54" data-name="Group 54" transform="translate(5.89 15.254)">
                  <rect id="Rectangle_21" data-name="Rectangle 21" width="7.273" height="19.047" transform="translate(0.379 2.422) rotate(-5.681)" fill="#59afec"/>
                  <path id="Rectangle_22" data-name="Rectangle 22" d="M1.362,0H6.336A1.362,1.362,0,0,1,7.7,1.362V4.091a0,0,0,0,1,0,0H0a0,0,0,0,1,0,0V1.362A1.362,1.362,0,0,1,1.362,0Z" transform="translate(0 0.762) rotate(-5.682)" fill="#0d334a"/>
                  <path id="Path_59" data-name="Path 59" d="M275.717,183.474h0a1.2,1.2,0,0,1-1.31-1.073l-.5-4.973a1.2,1.2,0,0,1,1.073-1.31h0a1.2,1.2,0,0,1,1.31,1.073l.5,4.973A1.2,1.2,0,0,1,275.717,183.474Z" transform="translate(-269.744 -173.655)" fill="#0d334a"/>
                </g>
                <path id="Path_60" data-name="Path 60" d="M267.131,186.719,269.9,225.34h27.339l2.771-38.621Z" transform="translate(-264.39 -157.562)" fill="#f4a000"/>
                <path id="Path_61" data-name="Path 61" d="M299.369,191.129H267.222a2.631,2.631,0,0,1-2.631-2.632h0a2.631,2.631,0,0,1,2.631-2.631h32.148A2.632,2.632,0,0,1,302,188.5h0A2.632,2.632,0,0,1,299.369,191.129Z" transform="translate(-264.591 -157.629)" fill="#0d334a"/>
                <path id="Path_62" data-name="Path 62" d="M269.9,225.34h27.339l.058-.814c-4.557-3-9.472-5.608-13.43-9.35-6.576-6.218-10.023-15.208-11-24.206-.153-1.415-.234-2.833-.283-4.252h-5.39l-.053.158Z" transform="translate(-264.389 -157.562)" fill="#f4a000" opacity="0.22" style="mix-blend-mode: multiply;isolation: isolate"/>
              </g>
            </g>
            <g id="Group_58" data-name="Group 58" transform="translate(176.786 212.641)">
              <g id="Group_57" data-name="Group 57" transform="translate(5.396 48.758)">
                <path id="Path_63" data-name="Path 63" d="M331.6,285.609,316.034,438.521a2.037,2.037,0,0,0,1.813,2.061h0a2.407,2.407,0,0,0,2.951-1.636l22.472-156.295" transform="translate(-316.025 -282.651)" fill="#1c5e5e"/>
                <path id="Path_64" data-name="Path 64" d="M436.985,285.609l15.567,152.912a2.038,2.038,0,0,1-1.813,2.061h0a2.407,2.407,0,0,1-2.951-1.636L425.316,282.651" transform="translate(-307.384 -282.651)" fill="#1c5e5e"/>
              </g>
              <rect id="Rectangle_23" data-name="Rectangle 23" width="155.967" height="40.212" rx="10.974" transform="translate(0 12.591)" fill="#3d348b"/>
              <path id="Path_66" data-name="Path 66" d="M388.855,265.25l2.906,154.16h14.134l22.3-152.3" transform="translate(-304.872 -235.269)" fill="#b0cbea"/>
              <path id="Path_68" data-name="Path 68" d="M330.835,250.725s2.889,26.187,15.4,28.608,66.119-3.3,66.119-3.3l-3.405-16.719Z" transform="translate(-309.459 -236.418)" fill="#b0cbea"/>
              <path id="Path_70" data-name="Path 70" d="M346.874,268.169l146.732,32.047,2.812-12.752-91.481-46.175-71.88-3.823S322.71,262.794,346.874,268.169Z" transform="translate(-309.457 -237.466)" fill="#c5dcfc"/>
              <path id="Path_111" data-name="Path 111" d="M488.273,449.322c-.037-.428-.065-.858-.065-1.294a14.838,14.838,0,1,1,29.677,0c0,.436-.028.867-.065,1.294Z" transform="translate(-408.353 -263.313)" fill="#4e4e7c"/>
              <path id="Path_112" data-name="Path 112" d="M489.977,450.214h26.945a3.558,3.558,0,0,0,3.557-3.557h0a3.557,3.557,0,0,0-3.557-3.557H489.977a3.556,3.556,0,0,0-3.557,3.557h0A3.557,3.557,0,0,0,489.977,450.214Z" transform="translate(-408.755 -261.078)" fill="#fec35b"/>
              <path id="Path_177" data-name="Path 177" d="M.065,16.133C.028,15.705,0,15.275,0,14.839a14.838,14.838,0,1,1,29.677,0c0,.436-.028.867-.065,1.294Z" transform="matrix(0.259, -0.966, 0.966, 0.259, 176.51, 72.65)" fill="#4e4e7c"/>
              <path id="Path_178" data-name="Path 178" d="M3.557,7.114H30.5a3.558,3.558,0,0,0,3.557-3.558h0A3.557,3.557,0,0,0,30.5,0H3.557A3.556,3.556,0,0,0,0,3.557H0A3.557,3.557,0,0,0,3.557,7.114Z" transform="matrix(0.259, -0.966, 0.966, 0.259, 187.675, 77.909)" fill="#fec35b"/>
            </g>
            <g id="Group_60" data-name="Group 60" transform="translate(0 196.503)">
              <g id="Group_59" data-name="Group 59" transform="translate(54.825 26.176)">
                <path id="Path_72" data-name="Path 72" d="M214.393,246.768,198.009,458.824a2.7,2.7,0,0,0,1.909,2.859h0a2.542,2.542,0,0,0,3.106-2.269L229.5,249.438" transform="translate(-198 -246.768)" fill="#f18802"/>
                <path id="Path_73" data-name="Path 73" d="M554.5,246.768l16.384,212.056a2.7,2.7,0,0,1-1.909,2.859h0a2.542,2.542,0,0,1-3.106-2.269L539.4,249.438" transform="translate(-171.007 -246.768)" fill="#f18802"/>
              </g>
              <rect id="Rectangle_24" data-name="Rectangle 24" width="446.144" height="34.38" rx="5.128" transform="translate(31.697 3.779)" fill="#f8b901"/>
              <rect id="Rectangle_25" data-name="Rectangle 25" width="509.539" height="13.213" rx="5.128" fill="#f18802"/>
            </g>
          </g>
        </g>
      </g>
      <g id="Group_45" data-name="Group 45" transform="translate(236.764 35.262)">
        <g id="Group_41" data-name="Group 41" transform="translate(14.59 0)">
          <path id="Path_97" data-name="Path 97" d="M513.023,191.99q1.328,7.659,2.655,15.316l.775-.774-6.356-2.1a.636.636,0,0,0-.775.775,28.181,28.181,0,0,0,3.181,7.731.631.631,0,0,0,1.089-.636,27.18,27.18,0,0,1-3.055-7.43l-.775.775,6.356,2.1c.5.165.852-.335.775-.774q-1.328-7.659-2.655-15.318c-.139-.8-1.353-.46-1.215.335Z" transform="translate(-509.304 -191.198)" fill="#bc665b"/>
        </g>
        <g id="Group_42" data-name="Group 42" transform="translate(0 7.831)">
          <path id="Path_98" data-name="Path 98" d="M503.413,200.534q.274,4.319.544,8.636c.084,1.34,2.178,1.349,2.094,0q-.273-4.319-.545-8.636c-.084-1.34-2.178-1.348-2.094,0Z" transform="translate(-503.411 -199.526)" fill="#bc665b"/>
        </g>
        <g id="Group_43" data-name="Group 43" transform="translate(34.625 7.831)">
          <path id="Path_99" data-name="Path 99" d="M526.206,200.534q-.271,4.319-.543,8.636c-.084,1.34-2.178,1.349-2.094,0q.273-4.319.544-8.636c.084-1.34,2.179-1.348,2.092,0Z" transform="translate(-523.567 -199.526)" fill="#bc665b"/>
        </g>
        <g id="Group_44" data-name="Group 44" transform="translate(14.83 25.961)">
          <path id="Path_100" data-name="Path 100" d="M.042,1.026A7.738,7.738,0,0,0,13.49,3.816c.687-.818-.486-2-1.178-1.18A6.068,6.068,0,0,1,1.65.583C1.331-.441-.279,0,.042,1.026Z" transform="matrix(0.839, -0.545, 0.545, 0.839, 0, 7.461)" fill="#bc665b"/>
        </g>
      </g>
      <path id="Path_53" data-name="Path 53" d="M410,74.911H398.558a7.891,7.891,0,0,0-7.849,7.191c-4.466-2.439-7.607-1.224-9.414,0a7.892,7.892,0,0,0-7.849-7.2H362.007a7.892,7.892,0,0,0-7.884,7.884v6.672a7.893,7.893,0,0,0,7.884,7.884h11.439a7.893,7.893,0,0,0,7.884-7.884V84.648c1.273-1.128,4.139-3.631,9.345-.244v5.062a7.893,7.893,0,0,0,7.884,7.884H410a7.893,7.893,0,0,0,7.885-7.884V82.795A7.892,7.892,0,0,0,410,74.911ZM378.8,89.466a5.365,5.365,0,0,1-5.359,5.358H362.007a5.365,5.365,0,0,1-5.359-5.358V82.795a5.365,5.365,0,0,1,5.359-5.359h11.439a5.365,5.365,0,0,1,5.359,5.359Zm36.551,0A5.365,5.365,0,0,1,410,94.824H398.558a5.365,5.365,0,0,1-5.359-5.358V82.795a5.365,5.365,0,0,1,5.359-5.359H410a5.365,5.365,0,0,1,5.36,5.359Z" transform="translate(-130.832 -37.677)" fill="#fff"/>
      <path id="Path_105" data-name="Path 105" d="M539.517,210.446a5.307,5.307,0,0,1,4.556-6.006c.309-.048.177-.516-.129-.469a5.769,5.769,0,0,0-4.913,6.475c.036.307.523.311.486,0Z" transform="translate(-249.45 -147.964)" fill="#bc665b"/>
      <path id="Path_106" data-name="Path 106" d="M541.66,206.3a2.771,2.771,0,0,1-.695,3.18c-.232.212.113.554.344.344a3.266,3.266,0,0,0,.771-3.769c-.127-.287-.545-.039-.42.245Z" transform="translate(-250.03 -148.561)" fill="#bc665b"/>
      <path id="Path_108" data-name="Path 108" d="M487.683,210.446a5.306,5.306,0,0,0-4.555-6.006c-.309-.048-.177-.516.129-.469a5.769,5.769,0,0,1,4.912,6.475c-.036.307-.522.311-.486,0Z" transform="translate(-267.956 -147.964)" fill="#bc665b"/>
      <path id="Path_109" data-name="Path 109" d="M487.2,206.3a2.77,2.77,0,0,0,.695,3.18c.233.212-.113.554-.344.344a3.264,3.264,0,0,1-.77-3.769c.126-.287.545-.039.42.245Z" transform="translate(-269.035 -148.561)" fill="#bc665b"/>
    </g>
  </g>
</svg>
