<svg id="Capa_1" enable-background="new 0 0 510 510" height="512" viewBox="0 0 510 510" width="512" xmlns="http://www.w3.org/2000/svg" xmlns:xlink="http://www.w3.org/1999/xlink"><linearGradient id="lg1"><stop offset="0" stop-color="#537983"/><stop offset="1" stop-color="#3e5959"/></linearGradient><linearGradient id="SVGID_1_" gradientUnits="userSpaceOnUse" x1="238.882" x2="443.314" xlink:href="#lg1" y1="192.185" y2="396.617"/><linearGradient id="SVGID_2_" gradientUnits="userSpaceOnUse" x1="454" x2="372.975" y1="208.302" y2="208.302"><stop offset="0" stop-color="#3e5959" stop-opacity="0"/><stop offset=".8153" stop-color="#394c4c" stop-opacity=".815"/><stop offset="1" stop-color="#384949"/></linearGradient><linearGradient id="SVGID_3_" gradientUnits="userSpaceOnUse" x1="407.376" x2="407.376" y1="62.816" y2="168.575"><stop offset="0" stop-color="#ffe177"/><stop offset="1" stop-color="#fe9738"/></linearGradient><linearGradient id="lg2"><stop offset="0" stop-color="#eef5f6"/><stop offset="1" stop-color="#cbe5e8"/></linearGradient><linearGradient id="SVGID_4_" gradientUnits="userSpaceOnUse" x1="255" x2="255" xlink:href="#lg2" y1="188.621" y2="234.239"/><linearGradient id="lg3"><stop offset="0" stop-color="#cbe5e8" stop-opacity="0"/><stop offset="1" stop-color="#7ca1b1"/></linearGradient><linearGradient id="SVGID_5_" gradientUnits="userSpaceOnUse" x1="427" x2="369.965" xlink:href="#lg3" y1="208.302" y2="208.302"/><linearGradient id="SVGID_6_" gradientUnits="userSpaceOnUse" x1="80.382" x2="419.347" xlink:href="#lg2" y1="33.685" y2="372.65"/><linearGradient id="SVGID_7_" gradientTransform="matrix(-1 0 0 -1 510 414.47)" gradientUnits="userSpaceOnUse" x1="90.1" x2="410.201" xlink:href="#lg2" y1="41.27" y2="361.371"/><linearGradient id="SVGID_8_" gradientUnits="userSpaceOnUse" x1="479.175" x2="447.675" xlink:href="#lg3" y1="367.312" y2="389.812"/><linearGradient id="lg4"><stop offset="0" stop-color="#ffdcbd"/><stop offset="1" stop-color="#ffa9b1"/></linearGradient><linearGradient id="SVGID_9_" gradientUnits="userSpaceOnUse" x1="131.427" x2="161.356" xlink:href="#lg4" y1="154.32" y2="184.25"/><linearGradient id="SVGID_10_" gradientUnits="userSpaceOnUse" x1="340.712" x2="382.594" xlink:href="#lg4" y1="148.635" y2="190.516"/><linearGradient id="SVGID_11_" gradientUnits="userSpaceOnUse" x1="255" x2="255" y1="326.58" y2="441.354"><stop offset="0" stop-color="#60b7ff"/><stop offset="1" stop-color="#0268b4"/></linearGradient><linearGradient id="SVGID_12_" gradientUnits="userSpaceOnUse" x1="454" x2="408" y1="377.305" y2="377.305"><stop offset="0" stop-color="#0268b4" stop-opacity="0"/><stop offset="1" stop-color="#0268b4"/></linearGradient><linearGradient id="lg5"><stop offset="0" stop-color="#fe99a0"/><stop offset="1" stop-color="#fd4755"/></linearGradient><linearGradient id="SVGID_13_" gradientUnits="userSpaceOnUse" x1="220.564" x2="192.903" xlink:href="#lg5" y1="278.014" y2="322.272"/><linearGradient id="SVGID_14_" gradientUnits="userSpaceOnUse" x1="292.34" x2="315.978" xlink:href="#lg5" y1="282.695" y2="320.415"/><linearGradient id="SVGID_15_" gradientUnits="userSpaceOnUse" x1="147.363" x2="362.638" xlink:href="#lg4" y1="172.248" y2="172.248"/><linearGradient id="SVGID_16_" gradientUnits="userSpaceOnUse" x1="255" x2="255" y1="188.067" y2="228.816"><stop offset="0" stop-color="#ffa9b1" stop-opacity="0"/><stop offset=".9972" stop-color="#ffa78f"/></linearGradient><linearGradient id="SVGID_17_" gradientUnits="userSpaceOnUse" x1="256.069" x2="256.069" y1="534.236" y2="472.902"><stop offset="0" stop-color="#883f2e"/><stop offset="1" stop-color="#6d3326"/></linearGradient><linearGradient id="SVGID_18_" gradientUnits="userSpaceOnUse" x1="255" x2="255" y1="454.876" y2="479.833"><stop offset="0" stop-color="#ca6e59"/><stop offset="1" stop-color="#883f2e"/></linearGradient><linearGradient id="SVGID_19_" gradientUnits="userSpaceOnUse" x1="222.445" x2="298.315" xlink:href="#lg2" y1="276.318" y2="445.076"/><linearGradient id="SVGID_20_" gradientUnits="userSpaceOnUse" x1="285.36" x2="241.298" y1="380.593" y2="336.531"><stop offset="0" stop-color="#eef5f6" stop-opacity="0"/><stop offset="1" stop-color="#fff"/></linearGradient><linearGradient id="SVGID_21_" gradientUnits="userSpaceOnUse" x1="255" x2="255" xlink:href="#lg3" y1="413.646" y2="450.038"/><linearGradient id="SVGID_22_" gradientUnits="userSpaceOnUse" x1="191.643" x2="222.928" xlink:href="#lg1" y1="173.915" y2="173.915"/><linearGradient id="SVGID_23_" gradientUnits="userSpaceOnUse" x1="287.072" x2="318.357" xlink:href="#lg1" y1="173.915" y2="173.915"/><linearGradient id="lg6"><stop offset="0" stop-color="#d78878"/><stop offset="1" stop-color="#ca6e59"/></linearGradient><linearGradient id="SVGID_24_" gradientUnits="userSpaceOnUse" x1="287.669" x2="349.591" xlink:href="#lg6" y1="34.087" y2="96.009"/><linearGradient id="SVGID_25_" gradientUnits="userSpaceOnUse" x1="117.048" x2="308.564" xlink:href="#lg6" y1="77.298" y2="77.298"/><g><path d="m473.707 4.067h-437.414c-18.006 0-32.601 14.596-32.601 32.601v343.278c0 17.996 14.596 32.591 32.601 32.591h437.415c18.006 0 32.601-14.596 32.601-32.591v-343.278c0-18.006-14.596-32.601-32.602-32.601z" fill="url(#SVGID_1_)"/><path d="m494.354 4.067h-160.399c-6.603 0-11.955 14.595-11.955 32.601v343.278c0 17.996 5.352 32.591 11.955 32.591h160.399c6.603 0 11.955-14.596 11.955-32.591v-343.278c0-18.006-5.353-32.601-11.955-32.601z" fill="url(#SVGID_2_)"/><g fill="#fff"><circle cx="61.559" cy="85.567" r="9.5"/><circle cx="98.059" cy="130.067" r="9.5"/><circle cx="60.715" cy="163.086" r="9.5"/><circle cx="78.434" cy="255.368" r="9.5"/><circle cx="55.32" cy="302.329" r="9.5"/><circle cx="92.293" cy="319.196" r="9.5"/><circle cx="409.188" cy="246.457" r="9.5"/><circle cx="454.68" cy="284.289" r="9.5"/><circle cx="425.371" cy="335.047" r="9.5"/><circle cx="451.703" cy="162.106" r="9.5"/><circle cx="385.047" cy="61.149" r="9.5"/></g><path d="m428.677 62.739c-.002.254-.006.507-.011.762-.723 36.057-30.18 65.512-66.237 66.233-.253.005-.505.009-.757.011-11.04.1-15.849 13.878-7.297 20.86 12.191 9.953 27.918 15.737 45.008 15.178 35.382-1.156 64.175-29.949 65.332-65.331.559-17.09-5.226-32.818-15.178-45.009-6.981-8.553-20.759-3.744-20.86 7.296z" fill="url(#SVGID_3_)"/><path d="m17.262 183.553h475.476v49.498h-475.476z" fill="url(#SVGID_4_)"/><path d="m340.745 183.553h151.993v49.498h-151.993z" fill="url(#SVGID_5_)"/><g><path d="m476.92 1.067h-443.84c-18.27 0-33.08 14.81-33.08 33.08v348.32c0 18.26 14.81 33.07 33.08 33.07h443.84c18.27 0 33.08-14.81 33.08-33.07v-348.32c0-18.27-14.81-33.08-33.08-33.08zm.46 350.52c0 15.51-12.58 28.09-28.09 28.09h-388.58c-15.51 0-28.09-12.58-28.09-28.09v-286.57c0-15.51 12.58-28.08 28.09-28.08h388.58c15.51 0 28.09 12.57 28.09 28.08z" fill="url(#SVGID_6_)"/><path d="m42.48 401.077h425.04c17.22 0 31.19-13.97 31.19-31.19v-323.17c0-17.23-13.97-31.19-31.19-31.19h-425.04c-17.22 0-31.19 13.96-31.19 31.19v323.17c0 17.22 13.97 31.19 31.19 31.19zm-9.86-336.06c0-15.51 12.58-28.09 28.09-28.09h388.58c15.51 0 28.09 12.58 28.09 28.09v286.57c0 15.51-12.58 28.08-28.09 28.08h-388.58c-15.51 0-28.09-12.57-28.09-28.08z" fill="url(#SVGID_7_)"/></g><path d="m477.38 324.067v27.52c0 15.51-12.58 28.09-28.09 28.09h-63.29v35.86h90.92c18.27 0 33.08-14.81 33.08-33.07v-58.4z" fill="url(#SVGID_8_)"/><g><g><path d="m120.477 170.408c0-17.598 12.215-32.342 28.63-36.217 4.388-1.036 8.582 2.357 8.582 6.865v58.703c0 4.508-4.194 7.901-8.582 6.865-16.415-3.874-28.63-18.618-28.63-36.216z" fill="url(#SVGID_9_)"/><path d="m389.523 170.408c0-17.598-12.215-32.342-28.63-36.217-4.388-1.036-8.582 2.357-8.582 6.865v58.703c0 4.508 4.194 7.901 8.582 6.865 16.415-3.874 28.63-18.618 28.63-36.216z" fill="url(#SVGID_10_)"/></g><g><path d="m454.462 448.949h-398.924v-15.825c0-84.43 68.444-152.873 152.873-152.873h93.176c84.43 0 152.873 68.444 152.873 152.873v15.825z" fill="url(#SVGID_11_)"/><path d="m386 305.66v143.289h68.462v-15.825c0-53.224-27.205-100.087-68.462-127.464z" fill="url(#SVGID_12_)"/><g><path d="m179.057 271.875s-22.129 11.064-15.088 20.117c5.179 6.659 31.581 32.363 45.183 45.494 4.51 4.353 11.665 4.279 16.097-.153l29.75-29.75z" fill="url(#SVGID_13_)"/><path d="m330.943 271.875s22.129 11.064 15.088 20.117c-5.179 6.659-31.581 32.363-45.183 45.494-4.51 4.353-11.665 4.279-16.097-.153l-29.751-29.75z" fill="url(#SVGID_14_)"/></g><g><g><g><path d="m255 307.485c-59.447 0-107.638-48.191-107.638-107.637v-55.199c0-59.447 48.191-107.637 107.637-107.637 59.447 0 107.637 48.191 107.637 107.637v55.199c.002 59.446-48.189 107.637-107.636 107.637z" fill="url(#SVGID_15_)"/><path d="m260.946 226.919h-11.893c-9.911 0-17.415-8.956-15.679-18.714l6.817-38.324h29.616l6.817 38.324c1.737 9.758-5.767 18.714-15.678 18.714z" fill="url(#SVGID_16_)"/></g></g></g><g><path d="m461.522 508.933h-410.906c-5.806 0-10.513-4.707-10.513-10.513v-25.481h431.932v25.481c0 5.806-4.707 10.513-10.513 10.513z" fill="url(#SVGID_17_)"/><path d="m486.154 479.418h-462.308c-2.972 0-5.381-2.409-5.381-5.381v-19.707c0-2.972 2.409-5.381 5.381-5.381h462.308c2.972 0 5.381 2.409 5.381 5.381v19.708c0 2.971-2.409 5.38-5.381 5.38z" fill="url(#SVGID_18_)"/></g><g><path d="m393.527 251.517h-277.054c-6.069 0-10.988 4.92-10.988 10.988v171.626c0 8.184 6.634 14.818 14.818 14.818h269.394c8.184 0 14.818-6.634 14.818-14.818v-171.626c0-6.068-4.919-10.988-10.988-10.988z" fill="url(#SVGID_19_)"/><circle cx="255" cy="350.233" fill="url(#SVGID_20_)" r="26.436"/><path d="m105.485 386.867v47.264c0 8.184 6.634 14.818 14.818 14.818h269.394c8.184 0 14.818-6.634 14.818-14.818v-47.264z" fill="url(#SVGID_21_)"/></g><g><path d="m207.285 193.568c-8.639 0-15.643-7.003-15.643-15.643v-8.022c0-8.639 7.003-15.643 15.643-15.643 8.639 0 15.643 7.003 15.643 15.643v8.022c0 8.64-7.004 15.643-15.643 15.643z" fill="url(#SVGID_22_)"/><path d="m302.715 193.568c-8.639 0-15.643-7.003-15.643-15.643v-8.022c0-8.639 7.003-15.643 15.643-15.643 8.639 0 15.643 7.003 15.643 15.643v8.022c-.001 8.64-7.004 15.643-15.643 15.643z" fill="url(#SVGID_23_)"/></g></g><g><path d="m328.971 22.027c-25.597 0-46.347 22.183-46.347 49.546 0 12.88 3.122 24.969 8.603 35.463 11.655 22.299 33.948 37.367 59.525 37.367 16.255 0 29.447-14.055 29.501-31.432.056-17.923.116-36.847.116-36.847 0-29.877-22.656-54.098-50.604-54.098h-.794z" fill="url(#SVGID_24_)"/><path d="m277.513 21.652h-112.881c-10.959 0-21.69-3.341-30.935-9.63-7.212-4.906-16.649.632-16.649 9.771v56.37c0 36.584 27.742 66.24 61.963 66.24h45.78c26.601 0 50.315-13.259 65.647-33.939 11.353-15.28 18.126-34.612 18.126-55.618 0-18.332-13.902-33.194-31.051-33.194z" fill="url(#SVGID_25_)"/></g></g></g></svg>